<svg id="Layer_1" data-name="Layer 1" xmlns="http://www.w3.org/2000/svg" viewBox="0 0 376.1834 376.1834"><defs><style>.cls-1{fill:#c69c6d;}.cls-2{fill:#844c00;}.cls-3{fill:#b88f67;}.cls-4{fill:#e6e6e6;}</style></defs><path class="cls-1" d="M188.0917,371.1835a19.7056,19.7056,0,0,1-10.4434-2.9912l-5.7671-3.6a29.7154,29.7154,0,0,0-22.914-3.6289l-6.5967,1.64a19.7129,19.7129,0,0,1-19.8647-6.4531l-4.3726-5.2061A29.88,29.88,0,0,0,97.4623,340.412l-6.7822-.4775a19.8475,19.8475,0,0,1-16.897-12.2764l-2.5508-6.3037a29.873,29.873,0,0,0-16.4048-16.4033l-6.3012-2.55a19.8484,19.8484,0,0,1-12.2769-16.8985l-.4775-6.7812A29.8811,29.8811,0,0,0,25.24,258.0507l-5.206-4.3731a19.8479,19.8479,0,0,1-6.4546-19.8642l1.6416-6.5977a29.88,29.88,0,0,0-3.6294-22.9131l-3.6-5.7676a19.8459,19.8459,0,0,1,0-20.8867l3.6-5.7671a29.8822,29.8822,0,0,0,3.6294-22.914L13.579,142.37a19.8463,19.8463,0,0,1,6.4546-19.8637l5.2056-4.3726A29.8841,29.8841,0,0,0,35.7719,97.4623l.4775-6.7822a19.8457,19.8457,0,0,1,12.2769-16.897l6.3017-2.5508A29.8779,29.8779,0,0,0,71.2328,54.828l2.55-6.3017a19.8471,19.8471,0,0,1,16.898-12.2769l6.7812-.4775A29.8853,29.8853,0,0,0,118.1332,25.24l4.3726-5.206A19.7182,19.7182,0,0,1,142.37,13.579l6.5967,1.6416a29.7732,29.7732,0,0,0,7.1748.8794,29.6976,29.6976,0,0,0,15.74-4.5088l5.7671-3.6a19.7235,19.7235,0,0,1,20.8867,0l5.7676,3.6A29.6984,29.6984,0,0,0,220.0419,16.1a29.7371,29.7371,0,0,0,7.1738-.8794l6.5977-1.6416a19.72,19.72,0,0,1,19.8652,6.4546l4.3711,5.2056a29.8842,29.8842,0,0,0,20.6719,10.5327l6.7812.4775a19.8481,19.8481,0,0,1,16.8985,12.2773l2.55,6.3013a29.8724,29.8724,0,0,0,16.4043,16.4043l6.3027,2.55a19.8489,19.8489,0,0,1,12.2764,16.898l.4775,6.7812a29.88,29.88,0,0,0,10.5322,20.6714l5.2061,4.3726a19.8447,19.8447,0,0,1,6.4531,19.8637l-1.6406,6.5982a29.8766,29.8766,0,0,0,3.63,22.9135l3.6,5.7671a19.85,19.85,0,0,1,0,20.8867l-3.6,5.7676a29.8705,29.8705,0,0,0-3.6289,22.9131l1.64,6.5977a19.8475,19.8475,0,0,1-6.4531,19.8652l-5.2061,4.3711a29.8856,29.8856,0,0,0-10.5322,20.6719l-.4775,6.7812a19.8508,19.8508,0,0,1-12.2774,16.8985l-6.3017,2.55a29.8661,29.8661,0,0,0-16.4043,16.4043l-2.55,6.3027a19.8515,19.8515,0,0,1-16.8985,12.2764l-6.7812.4775a29.8814,29.8814,0,0,0-20.6709,10.5322l-4.3731,5.2061a19.7121,19.7121,0,0,1-19.8642,6.4531l-6.5977-1.6406a29.723,29.723,0,0,0-22.9131,3.63l-5.7676,3.6A19.705,19.705,0,0,1,188.0917,371.1835Z"/><path class="cls-2" d="M188.0917,10a14.7088,14.7088,0,0,1,7.796,2.2333l5.7672,3.6A34.6891,34.6891,0,0,0,220.041,21.1a34.7519,34.7519,0,0,0,8.3822-1.0273l6.5973-1.6412A14.7165,14.7165,0,0,1,249.8493,23.25l4.3727,5.2055A34.9065,34.9065,0,0,0,278.37,40.7592l6.7816.4777a14.8157,14.8157,0,0,1,12.614,9.1646l2.55,6.3021A34.9064,34.9064,0,0,0,319.48,75.8677l6.302,2.55a14.8159,14.8159,0,0,1,9.1647,12.6141l.4777,6.7816a34.9064,34.9064,0,0,0,12.3041,24.1482l5.2057,4.3726a14.8161,14.8161,0,0,1,4.8181,14.8287l-1.6412,6.5973a34.9061,34.9061,0,0,0,4.24,26.7684l3.6,5.7673a14.8158,14.8158,0,0,1,0,15.5918l-3.6,5.7673a34.9061,34.9061,0,0,0-4.24,26.7684l1.6412,6.5973a14.8162,14.8162,0,0,1-4.8181,14.8287l-5.2056,4.3725A34.9064,34.9064,0,0,0,335.4242,278.37l-.4777,6.7815a14.8157,14.8157,0,0,1-9.1646,12.6141l-6.3021,2.55A34.9067,34.9067,0,0,0,300.3157,319.48l-2.55,6.302a14.8159,14.8159,0,0,1-12.6141,9.1647l-6.7816.4777a34.9062,34.9062,0,0,0-24.1481,12.3041l-4.3728,5.2057a14.7163,14.7163,0,0,1-14.8286,4.8181l-6.5975-1.6414a34.7237,34.7237,0,0,0-26.7681,4.24l-5.7674,3.5995a14.723,14.723,0,0,1-15.5919,0l-5.7673-3.5995a34.7225,34.7225,0,0,0-26.7684-4.24l-6.5971,1.6412a14.7165,14.7165,0,0,1-14.8288-4.8182l-4.3726-5.2055a34.9066,34.9066,0,0,0-24.1483-12.3042l-6.7815-.4777a14.8157,14.8157,0,0,1-12.614-9.1646l-2.55-6.3021a34.9067,34.9067,0,0,0-19.1641-19.1641l-6.302-2.55a14.8159,14.8159,0,0,1-9.1647-12.6141l-.4777-6.7817A34.9063,34.9063,0,0,0,28.455,254.2219l-5.2056-4.3726a14.816,14.816,0,0,1-4.818-14.8288l1.6411-6.5972a34.9058,34.9058,0,0,0-4.24-26.7685l-3.6-5.7672a14.8158,14.8158,0,0,1,0-15.5918l3.6-5.7673a34.9051,34.9051,0,0,0,4.24-26.7682l-1.6411-6.5975a14.8158,14.8158,0,0,1,4.818-14.8287l5.2056-4.3726A34.9066,34.9066,0,0,0,40.7592,97.8132l.4777-6.7814a14.8157,14.8157,0,0,1,9.1646-12.6141l6.3021-2.55A34.9064,34.9064,0,0,0,75.8677,56.7036l2.55-6.302a14.8159,14.8159,0,0,1,12.614-9.1647l6.7817-.4777a34.9068,34.9068,0,0,0,24.1481-12.3041l4.3728-5.2057a14.7165,14.7165,0,0,1,14.8287-4.8181l6.5974,1.6413A34.754,34.754,0,0,0,156.1424,21.1a34.69,34.69,0,0,0,18.386-5.2669l5.7675-3.6A14.7076,14.7076,0,0,1,188.0917,10m0-10A24.7035,24.7035,0,0,0,175.001,3.75l-5.7673,3.6a24.72,24.72,0,0,1-13.0913,3.75,24.7167,24.7167,0,0,1-5.9681-.7314L143.577,8.7271a24.7163,24.7163,0,0,0-24.9,8.09l-4.3727,5.2056a24.7237,24.7237,0,0,1-17.1938,8.7607l-6.7816.4777a24.7239,24.7239,0,0,0-21.1811,15.389l-2.55,6.3021a24.7232,24.7232,0,0,1-13.645,13.6451l-6.3021,2.55A24.7236,24.7236,0,0,0,31.2616,90.329l-.4777,6.7815a24.7233,24.7233,0,0,1-8.7607,17.1938l-5.2056,4.3727a24.7237,24.7237,0,0,0-8.09,24.9l1.6412,6.5973A24.7235,24.7235,0,0,1,7.35,169.2337l-3.6,5.7673a24.7239,24.7239,0,0,0,0,26.1814l3.6,5.7672a24.7236,24.7236,0,0,1,3.0187,19.0594l-1.6412,6.5974a24.7238,24.7238,0,0,0,8.09,24.9l5.2056,4.3726a24.7237,24.7237,0,0,1,8.7607,17.1938l.4777,6.7816a24.7238,24.7238,0,0,0,15.389,21.1812l6.3021,2.55a24.7232,24.7232,0,0,1,13.645,13.6451l2.55,6.3021a24.7239,24.7239,0,0,0,21.1811,15.389l6.7816.4777a24.7229,24.7229,0,0,1,17.1938,8.7607l4.3727,5.2057a24.7165,24.7165,0,0,0,24.9,8.09l6.5973-1.6413a24.7219,24.7219,0,0,1,19.0594,3.0188l5.7673,3.5995a24.7233,24.7233,0,0,0,26.1814,0l5.7673-3.5995a24.7219,24.7219,0,0,1,19.0594-3.0188l6.5973,1.6413a24.7165,24.7165,0,0,0,24.9-8.09l4.3726-5.2057A24.7233,24.7233,0,0,1,279.0728,345.4l6.7816-.4777a24.724,24.724,0,0,0,21.1812-15.389l2.55-6.3021a24.7237,24.7237,0,0,1,13.6451-13.6451l6.3021-2.55a24.724,24.724,0,0,0,15.389-21.1812l.4777-6.7816A24.7233,24.7233,0,0,1,354.16,261.879l5.2057-4.3726a24.7239,24.7239,0,0,0,8.09-24.9l-1.6413-6.5974a24.7241,24.7241,0,0,1,3.0188-19.0594l3.5995-5.7672a24.7234,24.7234,0,0,0,0-26.1814l-3.5995-5.7673a24.7239,24.7239,0,0,1-3.0188-19.0594l1.6413-6.5973a24.7239,24.7239,0,0,0-8.09-24.9l-5.2057-4.3727A24.7229,24.7229,0,0,1,345.4,97.1105l-.4777-6.7815a24.7238,24.7238,0,0,0-15.389-21.1812l-6.3021-2.55a24.7237,24.7237,0,0,1-13.6451-13.6451l-2.55-6.3021a24.724,24.724,0,0,0-21.1812-15.389l-6.7816-.4777a24.7241,24.7241,0,0,1-17.1938-8.7607l-4.3726-5.2056a24.7163,24.7163,0,0,0-24.9-8.09l-6.5973,1.6412a24.7167,24.7167,0,0,1-5.9681.7314A24.7232,24.7232,0,0,1,206.95,7.35l-5.7673-3.6A24.7035,24.7035,0,0,0,188.0917,0Z"/><path class="cls-3" d="M198.7761,37.6346l4.7072,2.938a20.1789,20.1789,0,0,0,15.556,2.4638l5.3847-1.34A20.1792,20.1792,0,0,1,244.747,48.3l3.5689,4.2487a20.179,20.179,0,0,0,14.0333,7.15l5.5351.39A20.1788,20.1788,0,0,1,285.172,72.65l2.0813,5.1437A20.1791,20.1791,0,0,0,298.39,88.93l5.1437,2.0812a20.1792,20.1792,0,0,1,12.56,17.2878l.39,5.5351a20.179,20.179,0,0,0,7.15,14.0333l4.2487,3.5689a20.1792,20.1792,0,0,1,6.6034,20.323l-1.34,5.3846A20.1791,20.1791,0,0,0,335.6108,172.7l2.938,4.7072a20.1792,20.1792,0,0,1,0,21.3688l-2.938,4.7072a20.1789,20.1789,0,0,0-2.4638,15.556l1.34,5.3847a20.1792,20.1792,0,0,1-6.6034,20.323l-4.2487,3.5689a20.179,20.179,0,0,0-7.15,14.0333l-.39,5.5351a20.179,20.179,0,0,1-12.56,17.2877l-5.1437,2.0813A20.1791,20.1791,0,0,0,287.2533,298.39l-2.0813,5.1437a20.179,20.179,0,0,1-17.2877,12.56l-5.5351.39a20.179,20.179,0,0,0-14.0333,7.15l-3.5689,4.2487a20.1792,20.1792,0,0,1-20.323,6.6034l-5.3847-1.34a20.1789,20.1789,0,0,0-15.556,2.4638l-4.7072,2.938a20.1792,20.1792,0,0,1-21.3688,0l-4.7072-2.938a20.1791,20.1791,0,0,0-15.5561-2.4638l-5.3846,1.34a20.1792,20.1792,0,0,1-20.323-6.6034l-3.5689-4.2487a20.179,20.179,0,0,0-14.0333-7.15l-5.5351-.39a20.1792,20.1792,0,0,1-17.2878-12.56L88.93,298.39a20.1791,20.1791,0,0,0-11.1369-11.1369L72.65,285.172a20.1788,20.1788,0,0,1-12.56-17.2877l-.39-5.5351a20.179,20.179,0,0,0-7.15-14.0333L48.3,244.747a20.1792,20.1792,0,0,1-6.6034-20.323l1.34-5.3847a20.1789,20.1789,0,0,0-2.4638-15.556l-2.938-4.7072a20.1788,20.1788,0,0,1,0-21.3688l2.938-4.7072a20.1791,20.1791,0,0,0,2.4638-15.5561l-1.34-5.3846A20.1792,20.1792,0,0,1,48.3,131.4364l4.2487-3.5689a20.179,20.179,0,0,0,7.15-14.0333l.39-5.5351A20.1791,20.1791,0,0,1,72.65,91.0113L77.7932,88.93A20.1791,20.1791,0,0,0,88.93,77.7932L91.0113,72.65a20.1791,20.1791,0,0,1,17.2878-12.56l5.5351-.39a20.179,20.179,0,0,0,14.0333-7.15L131.4364,48.3a20.1792,20.1792,0,0,1,20.323-6.6034l5.3846,1.34A20.1791,20.1791,0,0,0,172.7,40.5726l4.7072-2.938A20.1788,20.1788,0,0,1,198.7761,37.6346Z"/><path class="cls-4" d="M112.67,162.7465a8.7647,8.7647,0,0,1,4.42,8.0752,9.0507,9.0507,0,0,1-2.7622,6.9272,9.5051,9.5051,0,0,1-6.7578,2.5928,7.4869,7.4869,0,0,1-4.08-.9351,21.461,21.461,0,0,0,.9346-6.46,8.93,8.93,0,0,0-1.2324-4.8452,4.4081,4.4081,0,0,0-4.0371-1.9551q-4.59,0-7.9478,5.1426a39.3465,39.3465,0,0,0-5.1,12.2827,54.9689,54.9689,0,0,0-1.7422,12.92q0,6.0351,2.38,9.2646,2.3789,3.2315,7.7349,3.2305a14.077,14.077,0,0,0,7.7348-2.168,19.7751,19.7751,0,0,0,5.8653-5.9072q2.4645,1.5292,2.4648,5.1a10.2178,10.2178,0,0,1-2.7622,6.8848,18.33,18.33,0,0,1-7.5649,4.9306,30.18,30.18,0,0,1-10.5826,1.7852q-9.7755,0-14.79-5.5254-5.0163-5.5239-5.0151-16.49a45.7108,45.7108,0,0,1,3.6972-18.2749,33.3008,33.3008,0,0,1,10.88-13.8975,28.0038,28.0038,0,0,1,17.1274-5.3125A21.4612,21.4612,0,0,1,112.67,162.7465Z"/><path class="cls-4" d="M129.9247,161.6415q1.7848-.0836,6.1626-.2549,4.3762-.1692,7.5225-.17a52.1833,52.1833,0,0,1,11.73,1.105,13.4878,13.4878,0,0,1,7.3526,4.2075q2.6769,3.1032,2.6772,8.9673a18.9168,18.9168,0,0,1-3.8247,12.0273,16.2819,16.2819,0,0,1-10.2,6.0777A67.0036,67.0036,0,0,0,157.89,207.329q3.3986,5.1445,6.63,6.5879a7.2867,7.2867,0,0,1-3.0595,4.292,9.6289,9.6289,0,0,1-5.27,1.4033,10.2721,10.2721,0,0,1-7.7778-3.2725,26.8471,26.8471,0,0,1-5.3125-9.2656q-2.2112-5.9926-5.44-17.5527a10.2752,10.2752,0,0,0,1.4448.0849q6.2043,0,9.4775-3.5273t3.2725-9.9873q0-4.6736-1.87-7.0127-1.8707-2.3372-6.12-2.3374a24.398,24.398,0,0,0-3.9951.34l-9.7749,50.8306H116.07l10.625-56.1006Z"/><path class="cls-4" d="M212.119,195.5565q-2.38,12.3267-8.2021,18.1905t-16.7022,5.8652q-8.2455,0-13.0478-3.3584-4.8033-3.356-4.8023-10.2422a51.7768,51.7768,0,0,1,1.19-9.7744l6.63-34.4258H191.55l-6.63,35.4453a44.5373,44.5373,0,0,0-1.1055,8.5,7.0451,7.0451,0,0,0,1.6153,4.9727,6.1717,6.1717,0,0,0,4.76,1.7422,7.9418,7.9418,0,0,0,7.4375-4.08q2.3366-4.08,3.7823-11.9844l6.29-34.5957H218.58Z"/><path class="cls-4" d="M257.7636,162.4916q4.25,2.38,4.25,7.7349a8.2783,8.2783,0,0,1-2.6768,6.5874,9.314,9.314,0,0,1-6.333,2.3378,10.65,10.65,0,0,1-4.5049-1.02,14.78,14.78,0,0,0,.9346-3.145,17.8165,17.8165,0,0,0,.3408-3.3154,6.9741,6.9741,0,0,0-1.36-4.5474,4.87,4.87,0,0,0-3.9952-1.6572,7.7967,7.7967,0,0,0-5.78,2.4224,8.01,8.01,0,0,0-2.38,5.8222,7.867,7.867,0,0,0,2.38,5.78,39.62,39.62,0,0,0,7.0556,5.27,17.8651,17.8651,0,0,0,1.6143,1.105,37.7321,37.7321,0,0,1,7.8633,6.8423,13.009,13.009,0,0,1,2.7617,8.5429,15.0393,15.0393,0,0,1-3.3994,9.7325,21.6752,21.6752,0,0,1-9.0528,6.46,32.6671,32.6671,0,0,1-12.1972,2.253,23.4988,23.4988,0,0,1-11.3907-2.5928,8.7558,8.7558,0,0,1-4.76-8.2881,8.3913,8.3913,0,0,1,2.4228-6.332,8.74,8.74,0,0,1,6.3321-2.3379,12.3562,12.3562,0,0,1,5.1006,1.1054,17.92,17.92,0,0,0-1.2754,6.8,6.0841,6.0841,0,0,0,1.4873,4.42,5.8326,5.8326,0,0,0,4.3779,1.53,9.4728,9.4728,0,0,0,6.29-2.21,7.0932,7.0932,0,0,0,2.6348-5.6953,7.6809,7.6809,0,0,0-2.21-5.5244,45.3732,45.3732,0,0,0-6.8-5.4405,7.6143,7.6143,0,0,0-.9355-.68,8.4381,8.4381,0,0,1-.7647-.5107,36.4807,36.4807,0,0,1-7.9052-6.97,13.6478,13.6478,0,0,1-2.8047-8.84,15.1505,15.1505,0,0,1,3.1445-9.52,20.1058,20.1058,0,0,1,8.585-6.29,32.0294,32.0294,0,0,1,12.1552-2.21A21.9134,21.9134,0,0,1,257.7636,162.4916Z"/><path class="cls-4" d="M301.6659,161.5565a15.803,15.803,0,0,0,3.2725-.68,5.2379,5.2379,0,0,1,.8925,1.955,9.8417,9.8417,0,0,1,.2969,2.38,4.3054,4.3054,0,0,1-2.4219,4.2925,15.6214,15.6214,0,0,1-6.5878,1.1479h-5.1l-7.2255,36.4654a39.1062,39.1062,0,0,0-.5948,5.4394,9.1623,9.1623,0,0,0,1.1055,4.59,12.6117,12.6117,0,0,1-7.7353,2.4658q-6.9713,0-6.97-7.1406a61.2274,61.2274,0,0,1,1.4444-11.1348l6.205-30.6851h-5.5244a23.0536,23.0536,0,0,0-6.29.68,6.9149,6.9149,0,0,1-.5527-1.7422,9.7759,9.7759,0,0,1-.2129-1.9125q0-3.315,2.3379-4.59a13.069,13.069,0,0,1,6.247-1.2749h23.12A35.3306,35.3306,0,0,0,301.6659,161.5565Z"/></svg>