<svg id="Layer_1" data-name="Layer 1" xmlns="http://www.w3.org/2000/svg" viewBox="0 0 376.1834 376.1834"><defs><style>.cls-1{fill:#c69c6d;}.cls-2{fill:#844c00;}.cls-3{fill:#b88f67;}</style></defs><path class="cls-1" d="M188.0919,366.6835a15.2132,15.2132,0,0,1-8.0606-2.3086l-5.7685-3.6006a34.2215,34.2215,0,0,0-26.3828-4.1777l-6.5957,1.6406a15.22,15.22,0,0,1-15.334-4.9814l-4.3711-5.2051a34.4022,34.4022,0,0,0-23.8008-12.128l-6.7822-.4775a15.32,15.32,0,0,1-13.042-9.4756l-2.55-6.3017a34.4013,34.4013,0,0,0-18.89-18.8887l-6.3007-2.55a15.3191,15.3191,0,0,1-9.4756-13.042l-.4776-6.7813a34.4068,34.4068,0,0,0-12.1259-23.8007l-5.2081-4.3731a15.3239,15.3239,0,0,1-4.9814-15.333l1.6416-6.5967a34.4027,34.4027,0,0,0-4.1777-26.3818l-3.6-5.7686a15.3175,15.3175,0,0,1,0-16.1215l3.5986-5.7666A34.4046,34.4046,0,0,0,19.587,147.88l-1.6416-6.5972a15.3214,15.3214,0,0,1,4.9824-15.332l5.2051-4.3721A34.4017,34.4017,0,0,0,40.2608,97.7782l.4776-6.7817a15.3177,15.3177,0,0,1,9.4756-13.042l6.3017-2.5508A34.4094,34.4094,0,0,0,75.4044,56.5165l2.55-6.3027a15.3188,15.3188,0,0,1,13.043-9.4756l6.78-.4776a34.4078,34.4078,0,0,0,23.8008-12.1264l4.3731-5.2066a15.2181,15.2181,0,0,1,15.333-4.9814l6.5957,1.6411A34.275,34.275,0,0,0,156.1417,20.6a34.1944,34.1944,0,0,0,18.1221-5.1914l5.7675-3.6a15.2251,15.2251,0,0,1,16.1221,0l5.7656,3.5991A34.1955,34.1955,0,0,0,220.0411,20.6a34.2658,34.2658,0,0,0,8.2607-1.0122l6.5987-1.6421a15.2181,15.2181,0,0,1,15.331,4.9819l4.3741,5.2066a34.4014,34.4014,0,0,0,23.7988,12.1264l6.7832.4776a15.3176,15.3176,0,0,1,13.041,9.4756L300.78,56.517a34.3981,34.3981,0,0,0,18.8867,18.8872l6.3017,2.55a15.3213,15.3213,0,0,1,9.4766,13.043l.4775,6.7812A34.4049,34.4049,0,0,0,348.05,121.579l5.2051,4.3721a15.317,15.317,0,0,1,4.9824,15.332l-1.6416,6.5972a34.4049,34.4049,0,0,0,4.18,26.3838l3.5986,5.767a15.3189,15.3189,0,0,1,.001,16.1211l-3.6006,5.7686a34.3977,34.3977,0,0,0-4.1787,26.3809l1.6416,6.5986a15.3194,15.3194,0,0,1-4.9824,15.332l-5.2051,4.3721a34.4048,34.4048,0,0,0-12.127,23.8008l-.4775,6.7822a15.3239,15.3239,0,0,1-9.4775,13.043l-6.3008,2.5488a34.3947,34.3947,0,0,0-18.8877,18.8887l-2.55,6.3017a15.3221,15.3221,0,0,1-13.043,9.4756l-6.7812.4775a34.3981,34.3981,0,0,0-23.8008,12.128l-4.3731,5.2051a15.2147,15.2147,0,0,1-15.331,4.9814l-6.5987-1.6406a34.2176,34.2176,0,0,0-26.3828,4.1787l-5.7666,3.6A15.2152,15.2152,0,0,1,188.0919,366.6835Z"/><path class="cls-2" d="M188.0916,19a5.718,5.718,0,0,1,3.0307.8682l5.7672,3.5995A43.6806,43.6806,0,0,0,220.0411,30.1a43.7689,43.7689,0,0,0,10.5552-1.2934l6.5968-1.6412a5.7163,5.7163,0,0,1,5.7649,1.8729l4.3723,5.2054a43.9535,43.9535,0,0,0,30.4075,15.4934l6.7812.4777a5.76,5.76,0,0,1,4.9037,3.5626l2.55,6.3021A43.9543,43.9543,0,0,0,316.104,84.2106l6.3021,2.55a5.7591,5.7591,0,0,1,3.5626,4.9036l.4778,6.7815A43.9541,43.9541,0,0,0,341.94,128.8531l5.2054,4.3724a5.76,5.76,0,0,1,1.8731,5.7647l-1.6411,6.5969a43.9522,43.9522,0,0,0,5.3385,33.7068l3.6,5.7673a5.76,5.76,0,0,1,0,6.0611l-3.6,5.7672a43.9524,43.9524,0,0,0-5.3387,33.7064l1.6413,6.5975a5.76,5.76,0,0,1-1.8727,5.7643l-5.2059,4.3728a43.9535,43.9535,0,0,0-15.4932,30.407l-.4778,6.7817a5.7593,5.7593,0,0,1-3.5627,4.9036l-6.302,2.55a43.9547,43.9547,0,0,0-24.1314,24.1314l-2.55,6.3018a5.76,5.76,0,0,1-4.9034,3.5628l-6.7818.4777A43.9531,43.9531,0,0,0,247.3305,341.94l-4.3724,5.2055a5.7161,5.7161,0,0,1-5.7645,1.8731l-6.5977-1.6413a43.7218,43.7218,0,0,0-33.7063,5.3386l-5.7674,3.6a5.7241,5.7241,0,0,1-6.0612,0l-5.7672-3.6a43.7227,43.7227,0,0,0-33.7067-5.3386l-6.5965,1.6412a5.7168,5.7168,0,0,1-5.7652-1.8729l-4.3725-5.2056a43.9538,43.9538,0,0,0-30.4073-15.4932l-6.7813-.4777a5.7592,5.7592,0,0,1-4.9036-3.5628l-2.55-6.3022a43.9543,43.9543,0,0,0-24.1312-24.131l-6.302-2.55a5.76,5.76,0,0,1-3.5627-4.9035l-.4776-6.7817a43.9542,43.9542,0,0,0-15.4933-30.4071l-5.2056-4.3726a5.7594,5.7594,0,0,1-1.873-5.7644l1.6413-6.5975A43.954,43.954,0,0,0,23.4677,196.89l-3.6-5.7673a5.7593,5.7593,0,0,1,0-6.0611l3.6-5.7672a43.9544,43.9544,0,0,0,5.3387-33.7067l-1.6413-6.597a5.76,5.76,0,0,1,1.873-5.7647l5.2058-4.3727A43.9544,43.9544,0,0,0,49.737,98.4457l.4776-6.7815a5.76,5.76,0,0,1,3.5627-4.9036l6.3021-2.55A43.9551,43.9551,0,0,0,84.2107,60.0794l2.55-6.3022a5.759,5.759,0,0,1,4.9032-3.5626l6.7818-.4777a43.9537,43.9537,0,0,0,30.4071-15.4932l4.3724-5.2055a5.7165,5.7165,0,0,1,5.7647-1.8731l6.5975,1.6413A43.7574,43.7574,0,0,0,156.1422,30.1a43.6809,43.6809,0,0,0,23.1516-6.6321l5.7672-3.5995A5.7174,5.7174,0,0,1,188.0916,19m0-19a24.7035,24.7035,0,0,0-13.0907,3.75l-5.7672,3.6a24.7222,24.7222,0,0,1-13.0915,3.75,24.72,24.72,0,0,1-5.9679-.7314L143.577,8.7271a24.7163,24.7163,0,0,0-24.9,8.09l-4.3726,5.2056a24.7235,24.7235,0,0,1-17.1938,8.7607l-6.7817.4777a24.7234,24.7234,0,0,0-21.181,15.3891l-2.55,6.302A24.7248,24.7248,0,0,1,52.9527,66.5978l-6.302,2.55A24.7237,24.7237,0,0,0,31.2616,90.329l-.4776,6.7816a24.7242,24.7242,0,0,1-8.7608,17.1938l-5.2055,4.3726a24.7241,24.7241,0,0,0-8.0907,24.9l1.6413,6.5973a24.7238,24.7238,0,0,1-3.0187,19.06l-3.6,5.7672a24.7239,24.7239,0,0,0,0,26.1814l3.6,5.7672a24.7238,24.7238,0,0,1,3.0187,19.0595L8.727,232.6064a24.7241,24.7241,0,0,0,8.0907,24.9l5.2055,4.3726a24.7242,24.7242,0,0,1,8.7608,17.1938l.4776,6.7816a24.7237,24.7237,0,0,0,15.3891,21.1812l6.302,2.55a24.7248,24.7248,0,0,1,13.6452,13.6451l2.55,6.302a24.7234,24.7234,0,0,0,21.181,15.3891l6.7817.4777a24.7235,24.7235,0,0,1,17.1938,8.7607l4.3726,5.2056a24.7171,24.7171,0,0,0,24.9,8.0905l6.5973-1.6413a24.7219,24.7219,0,0,1,19.0594,3.0188l5.7672,3.6a24.7239,24.7239,0,0,0,26.1814,0l5.7674-3.6a24.7219,24.7219,0,0,1,19.0594-3.0188l6.5973,1.6413a24.7171,24.7171,0,0,0,24.9-8.0905l4.3726-5.2056A24.7235,24.7235,0,0,1,279.0728,345.4l6.7817-.4777a24.7238,24.7238,0,0,0,21.1811-15.3891l2.55-6.302a24.7242,24.7242,0,0,1,13.6452-13.6451l6.302-2.55a24.7234,24.7234,0,0,0,15.389-21.1812l.4778-6.7816A24.724,24.724,0,0,1,354.16,261.879l5.2057-4.3726a24.7238,24.7238,0,0,0,8.0905-24.9l-1.6413-6.5973a24.7238,24.7238,0,0,1,3.0187-19.0595l3.6-5.7672a24.7234,24.7234,0,0,0,0-26.1814l-3.6-5.7672a24.7238,24.7238,0,0,1-3.0187-19.06l1.6413-6.5973a24.7238,24.7238,0,0,0-8.0905-24.9l-5.2057-4.3726A24.724,24.724,0,0,1,345.4,97.1106l-.4778-6.7816a24.7234,24.7234,0,0,0-15.389-21.1812l-6.302-2.55a24.7242,24.7242,0,0,1-13.6452-13.6451l-2.55-6.302a24.7238,24.7238,0,0,0-21.1811-15.3891l-6.7817-.4777a24.7235,24.7235,0,0,1-17.1938-8.7607l-4.3726-5.2056a24.7163,24.7163,0,0,0-24.9-8.09l-6.5973,1.6413a24.7144,24.7144,0,0,1-5.9679.7314A24.7238,24.7238,0,0,1,206.95,7.35l-5.7674-3.6A24.7035,24.7035,0,0,0,188.0916,0Z"/><path class="cls-3" d="M198.0279,48.1709l4.3775,2.7322a18.7664,18.7664,0,0,0,14.4667,2.2913l5.0076-1.2458a18.7661,18.7661,0,0,1,18.9,6.1409l3.319,3.9513a18.766,18.766,0,0,0,13.0506,6.65l5.1474.3626a18.7662,18.7662,0,0,1,16.0772,11.6807l1.9355,4.7835a18.7661,18.7661,0,0,0,10.357,10.357L295.45,97.81A18.7659,18.7659,0,0,1,307.13,113.8869l.3626,5.1474a18.7662,18.7662,0,0,0,6.65,13.0506l3.9512,3.319a18.7659,18.7659,0,0,1,6.141,18.9l-1.2458,5.0076A18.7659,18.7659,0,0,0,325.28,173.778l2.7322,4.3775a18.7658,18.7658,0,0,1,0,19.8724l-2.7322,4.3775a18.7659,18.7659,0,0,0-2.2913,14.4667l1.2458,5.0076a18.7659,18.7659,0,0,1-6.141,18.9l-3.9512,3.319a18.766,18.766,0,0,0-6.65,13.0506l-.3626,5.1474A18.7661,18.7661,0,0,1,295.45,278.3737l-4.7834,1.9355a18.7661,18.7661,0,0,0-10.357,10.357l-1.9355,4.7834A18.7661,18.7661,0,0,1,262.2965,307.13l-5.1474.3626a18.766,18.766,0,0,0-13.0506,6.65l-3.319,3.9512a18.7659,18.7659,0,0,1-18.9,6.141l-5.0076-1.2458a18.7659,18.7659,0,0,0-14.4667,2.2913l-4.3775,2.7322a18.7658,18.7658,0,0,1-19.8724,0L173.778,325.28a18.7659,18.7659,0,0,0-14.4667-2.2913l-5.0076,1.2458a18.7659,18.7659,0,0,1-18.9-6.141l-3.319-3.9512a18.7662,18.7662,0,0,0-13.0506-6.65l-5.1474-.3626A18.7659,18.7659,0,0,1,97.81,295.45l-1.9355-4.7834a18.7661,18.7661,0,0,0-10.357-10.357l-4.7835-1.9355A18.7662,18.7662,0,0,1,69.053,262.2965l-.3626-5.1474a18.766,18.766,0,0,0-6.65-13.0506L58.09,240.78a18.7661,18.7661,0,0,1-6.1409-18.9l1.2458-5.0076a18.7664,18.7664,0,0,0-2.2913-14.4667l-2.7322-4.3775a18.7658,18.7658,0,0,1,0-19.8724l2.7322-4.3775a18.7664,18.7664,0,0,0,2.2913-14.4667l-1.2458-5.0076a18.766,18.766,0,0,1,6.1409-18.9l3.9513-3.319a18.7662,18.7662,0,0,0,6.65-13.0506l.3626-5.1474A18.766,18.766,0,0,1,80.7337,97.81l4.7835-1.9355a18.7661,18.7661,0,0,0,10.357-10.357L97.81,80.7337A18.766,18.766,0,0,1,113.8869,69.053l5.1474-.3626a18.7662,18.7662,0,0,0,13.0506-6.65l3.319-3.9513a18.766,18.766,0,0,1,18.9-6.1409l5.0076,1.2458a18.7664,18.7664,0,0,0,14.4667-2.2913l4.3775-2.7322A18.7658,18.7658,0,0,1,198.0279,48.1709Z"/></svg>