<svg id="Layer_1" data-name="Layer 1" xmlns="http://www.w3.org/2000/svg" viewBox="0 0 376.1834 376.1834"><defs><style>.cls-1{fill:#c69c6d;}.cls-2{fill:#844c00;}.cls-3{fill:#b88f67;}.cls-4{font-size:73px;fill:#e6e6e6;font-family:ArialRoundedMTBold, Arial Rounded MT Bold;}.cls-5{letter-spacing:-0.0249em;}.cls-6{letter-spacing:0em;}</style></defs><path class="cls-1" d="M683,567.0918a19.7056,19.7056,0,0,1-10.4434-2.9912l-5.767-3.6a29.7156,29.7156,0,0,0-22.9141-3.6289l-6.5967,1.64a19.7129,19.7129,0,0,1-19.8647-6.4531l-4.3726-5.2061A29.88,29.88,0,0,0,592.3706,536.32l-6.7822-.4775a19.8475,19.8475,0,0,1-16.897-12.2764l-2.5508-6.3037a29.873,29.873,0,0,0-16.4048-16.4033l-6.3012-2.55a19.8486,19.8486,0,0,1-12.2769-16.8985L530.68,474.63a29.8813,29.8813,0,0,0-10.5323-20.6709l-5.206-4.3731a19.8479,19.8479,0,0,1-6.4546-19.8642l1.6416-6.5977A29.88,29.88,0,0,0,506.5,400.2109l-3.6-5.7675a19.846,19.846,0,0,1,0-20.8868l3.6-5.767a29.8826,29.8826,0,0,0,3.6294-22.9141l-1.6416-6.5977a19.8463,19.8463,0,0,1,6.4546-19.8637l5.2056-4.3726A29.8841,29.8841,0,0,0,530.68,293.3706l.4775-6.7822a19.8458,19.8458,0,0,1,12.2769-16.897l6.3017-2.5508a29.8779,29.8779,0,0,0,16.4048-16.4043l2.55-6.3017a19.8473,19.8473,0,0,1,16.898-12.2769l6.7812-.4775a29.8853,29.8853,0,0,0,20.6714-10.5323l4.3726-5.206a19.7182,19.7182,0,0,1,19.8642-6.4546l6.5967,1.6416A29.7218,29.7218,0,0,0,666.79,207.5l5.767-3.6a19.7237,19.7237,0,0,1,20.8868,0l5.7675,3.6a29.7181,29.7181,0,0,0,22.9131,3.6294l6.5977-1.6416a19.72,19.72,0,0,1,19.8652,6.4546l4.3711,5.2056A29.8844,29.8844,0,0,0,773.63,231.68l6.7812.4775A19.8482,19.8482,0,0,1,797.31,244.4351l2.55,6.3012a29.8724,29.8724,0,0,0,16.4043,16.4043l6.3027,2.55a19.8489,19.8489,0,0,1,12.2764,16.898l.4775,6.7812a29.88,29.88,0,0,0,10.5322,20.6714l5.2061,4.3726a19.8445,19.8445,0,0,1,6.4531,19.8637l-1.6406,6.5982a29.8768,29.8768,0,0,0,3.63,22.9136l3.6,5.767a19.85,19.85,0,0,1,0,20.8868l-3.6,5.7675a29.8706,29.8706,0,0,0-3.6289,22.9131l1.64,6.5977a19.8473,19.8473,0,0,1-6.4531,19.8652l-5.2061,4.3711A29.8858,29.8858,0,0,0,835.32,474.63l-.4775,6.7812A19.8508,19.8508,0,0,1,822.5654,498.31l-6.3017,2.55a29.8661,29.8661,0,0,0-16.4043,16.4043l-2.55,6.3027a19.8515,19.8515,0,0,1-16.8985,12.2764l-6.7812.4775a29.8816,29.8816,0,0,0-20.6709,10.5322l-4.3731,5.2061a19.7121,19.7121,0,0,1-19.8642,6.4531l-6.5977-1.6406a29.723,29.723,0,0,0-22.9131,3.63l-5.7675,3.6A19.7056,19.7056,0,0,1,683,567.0918Z" transform="translate(-494.9083 -195.9083)"/><path class="cls-2" d="M683,205.9083a14.7088,14.7088,0,0,1,7.796,2.2333l5.7672,3.5995a34.7215,34.7215,0,0,0,26.7683,4.24l6.5973-1.6413a14.7165,14.7165,0,0,1,14.8288,4.8182l4.3727,5.2056a34.9068,34.9068,0,0,0,24.1481,12.3041l6.7816.4777a14.8159,14.8159,0,0,1,12.614,9.1646l2.55,6.3021a34.9064,34.9064,0,0,0,19.1641,19.1641l6.302,2.55a14.8159,14.8159,0,0,1,9.1647,12.6141l.4777,6.7816A34.906,34.906,0,0,0,842.6367,317.87l5.2056,4.3726a14.8162,14.8162,0,0,1,4.8181,14.8287l-1.6412,6.5973a34.906,34.906,0,0,0,4.24,26.7685l3.5995,5.7672a14.8158,14.8158,0,0,1,0,15.5918l-3.6,5.7673a34.9061,34.9061,0,0,0-4.24,26.7684l1.6412,6.5973a14.8162,14.8162,0,0,1-4.8181,14.8287l-5.2056,4.3726a34.906,34.906,0,0,0-12.3042,24.1482l-.4777,6.7815A14.8157,14.8157,0,0,1,820.69,493.674l-6.3021,2.55a34.9067,34.9067,0,0,0-19.1641,19.1641l-2.55,6.302a14.8159,14.8159,0,0,1-12.614,9.1647l-6.7817.4777A34.9062,34.9062,0,0,0,749.13,543.6366l-4.3728,5.2057A14.7161,14.7161,0,0,1,729.929,553.66l-6.5976-1.6414a34.7237,34.7237,0,0,0-26.7681,4.24l-5.7674,3.6a14.723,14.723,0,0,1-15.5919,0l-5.7673-3.6a34.7225,34.7225,0,0,0-26.7684-4.24l-6.5971,1.6412a14.7165,14.7165,0,0,1-14.8288-4.8182l-4.3726-5.2055a34.9064,34.9064,0,0,0-24.1482-12.3042l-6.7816-.4777a14.8157,14.8157,0,0,1-12.614-9.1646l-2.55-6.3021a34.9067,34.9067,0,0,0-19.1641-19.1641l-6.302-2.55a14.8159,14.8159,0,0,1-9.1647-12.6141l-.4777-6.7816A34.906,34.906,0,0,0,523.3633,450.13l-5.2056-4.3726a14.816,14.816,0,0,1-4.818-14.8288l1.6411-6.5972a34.9058,34.9058,0,0,0-4.24-26.7685l-3.6-5.7672a14.8158,14.8158,0,0,1,0-15.5918l3.6-5.7672a34.9054,34.9054,0,0,0,4.24-26.7683l-1.6411-6.5975a14.8159,14.8159,0,0,1,4.818-14.8287l5.2056-4.3726a34.906,34.906,0,0,0,12.3042-24.1482l.4777-6.7815A14.8157,14.8157,0,0,1,545.31,274.326l6.3021-2.55a34.9064,34.9064,0,0,0,19.1641-19.1641l2.55-6.302a14.8161,14.8161,0,0,1,12.614-9.1647l6.7817-.4777A34.9068,34.9068,0,0,0,616.87,224.3634l4.3728-5.2057a14.7165,14.7165,0,0,1,14.8287-4.8181l6.5974,1.6413a34.7214,34.7214,0,0,0,26.7681-4.24l5.7675-3.6A14.7076,14.7076,0,0,1,683,205.9083m0-10a24.7027,24.7027,0,0,0-13.0907,3.75l-5.7673,3.6a24.7223,24.7223,0,0,1-19.0594,3.0187l-6.5973-1.6412a24.7163,24.7163,0,0,0-24.9,8.09l-4.3727,5.2056a24.7233,24.7233,0,0,1-17.1937,8.7607l-6.7817.4777a24.7239,24.7239,0,0,0-21.1811,15.389l-2.55,6.3021a24.7232,24.7232,0,0,1-13.645,13.6451l-6.3021,2.55a24.7239,24.7239,0,0,0-15.389,21.1812l-.4777,6.7816a24.7233,24.7233,0,0,1-8.7607,17.1937l-5.2056,4.3727a24.724,24.724,0,0,0-8.0905,24.9l1.6412,6.5973a24.7233,24.7233,0,0,1-3.0187,19.06l-3.6,5.7672a24.7234,24.7234,0,0,0,0,26.1814l3.6,5.7672a24.7233,24.7233,0,0,1,3.0187,19.06l-1.6412,6.5973a24.724,24.724,0,0,0,8.0905,24.9l5.2056,4.3727a24.7233,24.7233,0,0,1,8.7607,17.1937l.4777,6.7816a24.7239,24.7239,0,0,0,15.389,21.1812l6.3021,2.55a24.7232,24.7232,0,0,1,13.645,13.6451l2.55,6.3021a24.7239,24.7239,0,0,0,21.1811,15.389l6.7817.4777a24.7233,24.7233,0,0,1,17.1937,8.7607l4.3727,5.2057a24.7165,24.7165,0,0,0,24.9,8.09l6.5973-1.6413a24.7219,24.7219,0,0,1,19.0594,3.0188l5.7673,3.5995a24.7233,24.7233,0,0,0,26.1814,0l5.7673-3.5995a24.7219,24.7219,0,0,1,19.0594-3.0188l6.5973,1.6413a24.7165,24.7165,0,0,0,24.9-8.09l4.3727-5.2057a24.7233,24.7233,0,0,1,17.1937-8.7607l6.7817-.4777a24.7239,24.7239,0,0,0,21.1811-15.389l2.55-6.3021a24.7232,24.7232,0,0,1,13.645-13.6451l6.3021-2.55a24.7239,24.7239,0,0,0,15.389-21.1812l.4777-6.7816a24.7233,24.7233,0,0,1,8.7607-17.1937l5.2057-4.3727a24.7239,24.7239,0,0,0,8.09-24.9l-1.6413-6.5973a24.7242,24.7242,0,0,1,3.0188-19.06l3.5995-5.7672a24.7234,24.7234,0,0,0,0-26.1814l-3.5995-5.7672a24.7242,24.7242,0,0,1-3.0188-19.06l1.6413-6.5973a24.7239,24.7239,0,0,0-8.09-24.9l-5.2057-4.3727a24.7233,24.7233,0,0,1-8.7607-17.1937l-.4777-6.7816a24.7239,24.7239,0,0,0-15.389-21.1812l-6.3021-2.55a24.7232,24.7232,0,0,1-13.645-13.6451l-2.55-6.3021a24.7239,24.7239,0,0,0-21.1811-15.389l-6.7817-.4777a24.7233,24.7233,0,0,1-17.1937-8.7607l-4.3727-5.2056a24.7163,24.7163,0,0,0-24.9-8.09l-6.5973,1.6412a24.7223,24.7223,0,0,1-19.0594-3.0187l-5.7673-3.6A24.7027,24.7027,0,0,0,683,195.9083Z" transform="translate(-494.9083 -195.9083)"/><path class="cls-3" d="M693.6844,233.5429l4.7072,2.938a20.1789,20.1789,0,0,0,15.556,2.4638l5.3847-1.34a20.1792,20.1792,0,0,1,20.323,6.6034l3.5689,4.2487a20.179,20.179,0,0,0,14.0333,7.15l5.5351.39a20.179,20.179,0,0,1,17.2877,12.56l2.0813,5.1437a20.1791,20.1791,0,0,0,11.1369,11.1369l5.1437,2.0813a20.179,20.179,0,0,1,12.56,17.2877l.39,5.5351a20.179,20.179,0,0,0,7.15,14.0333l4.2487,3.5689a20.1792,20.1792,0,0,1,6.6034,20.323l-1.34,5.3847a20.1789,20.1789,0,0,0,2.4638,15.556l2.938,4.7072a20.1792,20.1792,0,0,1,0,21.3688l-2.938,4.7072a20.1789,20.1789,0,0,0-2.4638,15.556l1.34,5.3847a20.1792,20.1792,0,0,1-6.6034,20.323l-4.2487,3.5689a20.179,20.179,0,0,0-7.15,14.0333l-.39,5.5351a20.179,20.179,0,0,1-12.56,17.2877l-5.1437,2.0813a20.1791,20.1791,0,0,0-11.1369,11.1369l-2.0813,5.1437a20.179,20.179,0,0,1-17.2877,12.56l-5.5351.39a20.179,20.179,0,0,0-14.0333,7.15l-3.5689,4.2487a20.1792,20.1792,0,0,1-20.323,6.6034l-5.3847-1.34a20.1789,20.1789,0,0,0-15.556,2.4638l-4.7072,2.938a20.1792,20.1792,0,0,1-21.3688,0l-4.7072-2.938a20.1789,20.1789,0,0,0-15.556-2.4638l-5.3847,1.34a20.1792,20.1792,0,0,1-20.323-6.6034l-3.5689-4.2487a20.179,20.179,0,0,0-14.0333-7.15l-5.5351-.39a20.179,20.179,0,0,1-17.2877-12.56l-2.0813-5.1437a20.1791,20.1791,0,0,0-11.1369-11.1369l-5.1437-2.0813a20.179,20.179,0,0,1-12.56-17.2877l-.39-5.5351a20.179,20.179,0,0,0-7.15-14.0333l-4.2487-3.5689a20.1792,20.1792,0,0,1-6.6034-20.323l1.34-5.3847a20.1789,20.1789,0,0,0-2.4638-15.556l-2.938-4.7072a20.1792,20.1792,0,0,1,0-21.3688l2.938-4.7072a20.1789,20.1789,0,0,0,2.4638-15.556l-1.34-5.3847a20.1792,20.1792,0,0,1,6.6034-20.323l4.2487-3.5689a20.179,20.179,0,0,0,7.15-14.0333l.39-5.5351a20.179,20.179,0,0,1,12.56-17.2877l5.1437-2.0813a20.1791,20.1791,0,0,0,11.1369-11.1369l2.0813-5.1437a20.179,20.179,0,0,1,17.2877-12.56l5.5351-.39a20.179,20.179,0,0,0,14.0333-7.15l3.5689-4.2487a20.1792,20.1792,0,0,1,20.323-6.6034l5.3847,1.34a20.1789,20.1789,0,0,0,15.556-2.4638l4.7072-2.938A20.1792,20.1792,0,0,1,693.6844,233.5429Z" transform="translate(-494.9083 -195.9083)"/><text class="cls-4" transform="translate(60.8407 211.9284)">C<tspan class="cls-5" x="54.0371" y="0">R</tspan><tspan class="cls-6" x="104.7236" y="0">UST</tspan></text></svg>